# xmcd CD database file
#
# Track frame offsets:
#	150
#	18907
#	35035
#	56002
#	73669
#	89727
#	106044
#	123289
#	141210
#	159512
#
# Disc length: 2429 seconds
#
# Revision: 1
# Processed by: cddbd v1.5.1PL2 Copyright (c) Steve Scherf et al.
# Submitted via: CD2WAV32(JP) R3.22
#
DISCID=86097b0a
DTITLE=doll Various - doll ～歌姫 vol.6 -舞-
DYEAR=2005
DGENRE=JPop
TTITLE0=鳥居花音 - オリーブ
TTITLE1=草柳順子 - おさなともだち
TTITLE2=木葉楓 - ailes ～君に必要なもの～
TTITLE3=鳥居花音 - Ever Blue
TTITLE4=井上みゆ - Feeling ～キミといる瞬間～
TTITLE5=とろ美 - 空・shido・音楽!
TTITLE6=草柳順子 - アイタイ
TTITLE7=木葉楓 - リバーシブル
TTITLE8=とろ美 - すぱいす まぢっく
TTITLE9=井上みゆ - 誓い ～遥かなる未来へ
EXTD=
EXTT0=曲:ポーラ作造 詞:みち
EXTT1=曲:ポーラ作造 詞:草柳順子
EXTT2=曲:ロドリゲスのぶ 編:Beans.M 詞:木葉楓
EXTT3=曲:AQUARIUS 編:高島孝 詞:井筒日美
EXTT4=曲:ロドリゲスのぶ 編:高島孝 詞:井上みゆ
EXTT5=曲:ポーラ作造 詞:みち
EXTT6=曲:ロドリゲスのぶ 編:Beans.M 詞:草柳順子
EXTT7=曲:ロドリゲスのぶ 編:Jun.A 詞:井筒日美
EXTT8=曲:大川圭一朗 詞:とろ美
EXTT9=曲:ロドリゲスのぶ 編:Beans.M 詞:中谷美智子
PLAYORDER=
